<svg width="30" height="33" viewBox="0 0 30 33" fill="none" xmlns="http://www.w3.org/2000/svg">
<path d="M4.00004 32.5001C2.99171 32.5001 2.12882 32.1414 1.41137 31.4239C0.692707 30.7053 0.333374 29.8418 0.333374 28.8334V12.3334C0.333374 11.7529 0.46354 11.2029 0.723874 10.6834C0.982985 10.164 1.34171 9.73619 1.80004 9.40008L12.8 1.15008C13.1362 0.905637 13.4875 0.722303 13.8542 0.600081C14.2209 0.477859 14.6028 0.416748 15 0.416748C15.3973 0.416748 15.7792 0.477859 16.1459 0.600081C16.5125 0.722303 16.8639 0.905637 17.2 1.15008L28.2 9.40008C28.6584 9.73619 29.0177 10.164 29.278 10.6834C29.5372 11.2029 29.6667 11.7529 29.6667 12.3334V28.8334C29.6667 29.8418 29.308 30.7053 28.5905 31.4239C27.8719 32.1414 27.0084 32.5001 26 32.5001H18.6667V19.6667H11.3334V32.5001H4.00004Z" fill="#31E9A8"/>
</svg>
