<svg width="44" height="44" viewBox="0 0 44 44" fill="none" xmlns="http://www.w3.org/2000/svg">
<path d="M23.25 27.8333C24.5333 27.8333 25.6181 27.3903 26.5042 26.5042C27.3903 25.6181 27.8333 24.5333 27.8333 23.25V13.1667H33.3333V9.5H26V19.5833C25.6028 19.2778 25.175 19.0486 24.7167 18.8958C24.2583 18.7431 23.7694 18.6667 23.25 18.6667C21.9667 18.6667 20.8819 19.1097 19.9958 19.9958C19.1097 20.8819 18.6667 21.9667 18.6667 23.25C18.6667 24.5333 19.1097 25.6181 19.9958 26.5042C20.8819 27.3903 21.9667 27.8333 23.25 27.8333ZM15 33.3333C13.9917 33.3333 13.1288 32.9746 12.4113 32.2572C11.6927 31.5385 11.3333 30.675 11.3333 29.6667V7.66667C11.3333 6.65833 11.6927 5.79483 12.4113 5.07617C13.1288 4.35872 13.9917 4 15 4H37C38.0083 4 38.8718 4.35872 39.5905 5.07617C40.3079 5.79483 40.6667 6.65833 40.6667 7.66667V29.6667C40.6667 30.675 40.3079 31.5385 39.5905 32.2572C38.8718 32.9746 38.0083 33.3333 37 33.3333H15ZM7.66667 40.6667C6.65833 40.6667 5.79544 40.3079 5.078 39.5905C4.35933 38.8718 4 38.0083 4 37V11.3333H7.66667V37H33.3333V40.6667H7.66667Z" fill="#31E9A8"/>
</svg>
