<svg width="44" height="44" viewBox="0 0 44 44" fill="none" xmlns="http://www.w3.org/2000/svg">
<path d="M28.4166 25.6666H26.9683L26.455 25.1716C27.6007 23.8406 28.4381 22.2727 28.9071 20.5802C29.3762 18.8878 29.4654 17.1126 29.1683 15.3816C28.3066 10.285 24.0533 6.21495 18.92 5.59162C17.1152 5.36331 15.2822 5.55087 13.5612 6.13995C11.8401 6.72903 10.2766 7.70402 8.99031 8.99031C7.70402 10.2766 6.72903 11.8401 6.13995 13.5612C5.55087 15.2822 5.36331 17.1152 5.59162 18.92C6.21495 24.0533 10.285 28.3066 15.3816 29.1683C17.1126 29.4654 18.8878 29.3762 20.5802 28.9071C22.2727 28.4381 23.8406 27.6007 25.1716 26.455L25.6666 26.9683V28.4166L33.4583 36.2083C34.21 36.96 35.4383 36.96 36.19 36.2083C36.9416 35.4566 36.9416 34.2283 36.19 33.4766L28.4166 25.6666ZM17.4166 25.6666C12.8516 25.6666 9.16662 21.9816 9.16662 17.4166C9.16662 12.8516 12.8516 9.16662 17.4166 9.16662C21.9816 9.16662 25.6666 12.8516 25.6666 17.4166C25.6666 21.9816 21.9816 25.6666 17.4166 25.6666Z" fill="white"/>
</svg>
